<svg width="181" height="30" viewBox="0 0 181 30" fill="none" xmlns="http://www.w3.org/2000/svg">
<rect width="181" height="30" fill="none"/>
<mask id="path-1-inside-1_1_2" fill="white">
<path d="M0 15C0 6.71573 6.71573 0 15 0C23.2843 0 30 6.71573 30 15C30 23.2843 23.2843 30 15 30C6.71573 30 0 23.2843 0 15Z"/>
</mask>
<path d="M12.2598 20.3207C11.943 20.7732 12.0529 21.3967 12.5053 21.7135C12.9577 22.0303 13.5813 21.9203 13.8981 21.4679L13.0789 20.8943L12.2598 20.3207ZM21.964 9.94858C22.2808 9.49617 22.1708 8.87263 21.7184 8.55585C21.266 8.23907 20.6425 8.34902 20.3257 8.80142L21.1448 9.375L21.964 9.94858ZM9.14461 15.5398C8.75408 15.1493 8.12092 15.1493 7.73039 15.5398C7.33987 15.9304 7.33987 16.5635 7.73039 16.9541L8.4375 16.247L9.14461 15.5398ZM12.3708 21.5944C12.7613 21.985 13.3945 21.985 13.785 21.5944C14.1755 21.2039 14.1755 20.5708 13.785 20.1802L13.0779 20.8873L12.3708 21.5944ZM13.0789 20.8943L13.8981 21.4679L21.964 9.94858L21.1448 9.375L20.3257 8.80142L12.2598 20.3207L13.0789 20.8943ZM8.4375 16.247L7.73039 16.9541L12.3708 21.5944L13.0779 20.8873L13.785 20.1802L9.14461 15.5398L8.4375 16.247ZM15 30V28C7.8203 28 2 22.1797 2 15H0H-2C-2 24.3888 5.61116 32 15 32V30ZM30 15H28C28 22.1797 22.1797 28 15 28V30V32C24.3888 32 32 24.3888 32 15H30ZM15 0V2C22.1797 2 28 7.8203 28 15H30H32C32 5.61116 24.3888 -2 15 -2V0ZM15 0V-2C5.61116 -2 -2 5.61116 -2 15H0H2C2 7.8203 7.8203 2 15 2V0Z" fill="white" fill-opacity="0.9" mask="url(#path-1-inside-1_1_2)"/>
<path d="M45.8838 9.70215C44.1579 9.70215 42.7936 10.2786 41.791 11.4316C40.7956 12.5775 40.2979 14.1494 40.2979 16.1475C40.2979 18.2028 40.7777 19.7926 41.7373 20.917C42.7041 22.0342 44.0791 22.5928 45.8623 22.5928C46.958 22.5928 48.2077 22.3958 49.6113 22.002V23.6025C48.5228 24.0107 47.18 24.2148 45.583 24.2148C43.2699 24.2148 41.4831 23.513 40.2227 22.1094C38.9694 20.7057 38.3428 18.7113 38.3428 16.126C38.3428 14.5075 38.6436 13.0895 39.2451 11.8721C39.8538 10.6546 40.7275 9.71647 41.8662 9.05762C43.012 8.39876 44.3584 8.06934 45.9053 8.06934C47.5524 8.06934 48.9919 8.37012 50.2236 8.97168L49.4502 10.54C48.2614 9.98145 47.0726 9.70215 45.8838 9.70215ZM62.9316 18.1025C62.9316 20.0218 62.4482 21.5221 61.4814 22.6035C60.5146 23.6777 59.179 24.2148 57.4746 24.2148C56.4219 24.2148 55.4873 23.9678 54.6709 23.4736C53.8545 22.9795 53.2243 22.2705 52.7803 21.3467C52.3363 20.4229 52.1143 19.3415 52.1143 18.1025C52.1143 16.1833 52.5941 14.6901 53.5537 13.623C54.5133 12.5488 55.8454 12.0117 57.5498 12.0117C59.1969 12.0117 60.5039 12.5596 61.4707 13.6553C62.4447 14.751 62.9316 16.2334 62.9316 18.1025ZM53.9619 18.1025C53.9619 19.6064 54.2627 20.7523 54.8643 21.54C55.4658 22.3278 56.3503 22.7217 57.5176 22.7217C58.6849 22.7217 59.5693 22.3314 60.1709 21.5508C60.7796 20.763 61.084 19.6136 61.084 18.1025C61.084 16.6058 60.7796 15.4707 60.1709 14.6973C59.5693 13.9167 58.6777 13.5264 57.4961 13.5264C56.3288 13.5264 55.4479 13.9095 54.8535 14.6758C54.2591 15.4421 53.9619 16.5843 53.9619 18.1025ZM81.0752 24V16.3408C81.0752 15.4027 80.8747 14.7008 80.4736 14.2354C80.0726 13.7627 79.4495 13.5264 78.6045 13.5264C77.4945 13.5264 76.6745 13.8451 76.1445 14.4824C75.6146 15.1198 75.3496 16.1009 75.3496 17.4258V24H73.5664V16.3408C73.5664 15.4027 73.3659 14.7008 72.9648 14.2354C72.5638 13.7627 71.9372 13.5264 71.085 13.5264C69.9678 13.5264 69.1478 13.863 68.625 14.5361C68.1094 15.2021 67.8516 16.2979 67.8516 17.8232V24H66.0684V12.2266H67.5186L67.8086 13.8379H67.8945C68.2311 13.265 68.7038 12.8174 69.3125 12.4951C69.9284 12.1729 70.6159 12.0117 71.375 12.0117C73.2155 12.0117 74.4186 12.6777 74.9844 14.0098H75.0703C75.4212 13.3939 75.9297 12.9069 76.5957 12.5488C77.2617 12.1908 78.0208 12.0117 78.873 12.0117C80.2051 12.0117 81.2005 12.3555 81.8594 13.043C82.5254 13.7233 82.8584 14.8154 82.8584 16.3193V24H81.0752ZM92.0215 24.2148C91.2552 24.2148 90.5534 24.0752 89.916 23.7959C89.2858 23.5094 88.7559 23.0726 88.3262 22.4854H88.1973C88.2832 23.1729 88.3262 23.8245 88.3262 24.4404V29.2852H86.543V12.2266H87.9932L88.2402 13.8379H88.3262C88.7845 13.1934 89.318 12.7279 89.9268 12.4414C90.5355 12.1549 91.2337 12.0117 92.0215 12.0117C93.5827 12.0117 94.7858 12.5452 95.6309 13.6123C96.4831 14.6794 96.9092 16.1761 96.9092 18.1025C96.9092 20.0361 96.4759 21.54 95.6094 22.6143C94.75 23.6813 93.554 24.2148 92.0215 24.2148ZM91.7637 13.5264C90.5605 13.5264 89.6904 13.8594 89.1533 14.5254C88.6162 15.1914 88.3405 16.2513 88.3262 17.7051V18.1025C88.3262 19.7568 88.6019 20.9421 89.1533 21.6582C89.7048 22.3672 90.5892 22.7217 91.8066 22.7217C92.8236 22.7217 93.6185 22.3099 94.1914 21.4863C94.7715 20.6628 95.0615 19.5277 95.0615 18.0811C95.0615 16.613 94.7715 15.4886 94.1914 14.708C93.6185 13.9202 92.8092 13.5264 91.7637 13.5264ZM101.818 24H100.035V7.28516H101.818V24ZM110.573 24.2148C108.833 24.2148 107.458 23.6849 106.448 22.625C105.446 21.5651 104.944 20.0934 104.944 18.21C104.944 16.3122 105.41 14.8047 106.341 13.6875C107.279 12.5703 108.536 12.0117 110.111 12.0117C111.587 12.0117 112.754 12.4987 113.613 13.4727C114.473 14.4395 114.902 15.7178 114.902 17.3076V18.4355H106.792C106.828 19.8177 107.175 20.8669 107.834 21.583C108.5 22.2992 109.435 22.6572 110.638 22.6572C111.905 22.6572 113.159 22.3923 114.397 21.8623V23.4521C113.767 23.7243 113.169 23.9176 112.604 24.0322C112.045 24.154 111.368 24.2148 110.573 24.2148ZM110.09 13.5049C109.145 13.5049 108.389 13.8128 107.823 14.4287C107.265 15.0446 106.935 15.8968 106.835 16.9854H112.99C112.99 15.861 112.74 15.0016 112.238 14.4072C111.737 13.8057 111.021 13.5049 110.09 13.5049ZM121.756 22.7432C122.071 22.7432 122.375 22.7217 122.669 22.6787C122.963 22.6286 123.195 22.5785 123.367 22.5283V23.8926C123.174 23.9857 122.887 24.0609 122.508 24.1182C122.135 24.1826 121.799 24.2148 121.498 24.2148C119.221 24.2148 118.082 23.0153 118.082 20.6162V13.6123H116.396V12.7529L118.082 12.0117L118.834 9.49805H119.865V12.2266H123.281V13.6123H119.865V20.541C119.865 21.25 120.034 21.7943 120.37 22.1738C120.707 22.5534 121.169 22.7432 121.756 22.7432ZM127.514 24H125.73V12.2266H127.514V24ZM125.58 9.03613C125.58 8.62793 125.68 8.33073 125.881 8.14453C126.081 7.95117 126.332 7.85449 126.633 7.85449C126.919 7.85449 127.166 7.95117 127.374 8.14453C127.582 8.33789 127.686 8.63509 127.686 9.03613C127.686 9.43717 127.582 9.73796 127.374 9.93848C127.166 10.1318 126.919 10.2285 126.633 10.2285C126.332 10.2285 126.081 10.1318 125.881 9.93848C125.68 9.73796 125.58 9.43717 125.58 9.03613ZM141.457 18.1025C141.457 20.0218 140.974 21.5221 140.007 22.6035C139.04 23.6777 137.704 24.2148 136 24.2148C134.947 24.2148 134.013 23.9678 133.196 23.4736C132.38 22.9795 131.75 22.2705 131.306 21.3467C130.862 20.4229 130.64 19.3415 130.64 18.1025C130.64 16.1833 131.119 14.6901 132.079 13.623C133.039 12.5488 134.371 12.0117 136.075 12.0117C137.722 12.0117 139.029 12.5596 139.996 13.6553C140.97 14.751 141.457 16.2334 141.457 18.1025ZM132.487 18.1025C132.487 19.6064 132.788 20.7523 133.39 21.54C133.991 22.3278 134.876 22.7217 136.043 22.7217C137.21 22.7217 138.095 22.3314 138.696 21.5508C139.305 20.763 139.609 19.6136 139.609 18.1025C139.609 16.6058 139.305 15.4707 138.696 14.6973C138.095 13.9167 137.203 13.5264 136.021 13.5264C134.854 13.5264 133.973 13.9095 133.379 14.6758C132.785 15.4421 132.487 16.5843 132.487 18.1025ZM152.65 24V16.3838C152.65 15.4242 152.432 14.708 151.995 14.2354C151.558 13.7627 150.874 13.5264 149.943 13.5264C148.712 13.5264 147.809 13.8594 147.236 14.5254C146.663 15.1914 146.377 16.2907 146.377 17.8232V24H144.594V12.2266H146.044L146.334 13.8379H146.42C146.785 13.2578 147.297 12.8102 147.956 12.4951C148.615 12.1729 149.349 12.0117 150.158 12.0117C151.576 12.0117 152.643 12.3555 153.359 13.043C154.076 13.7233 154.434 14.8154 154.434 16.3193V24H152.65ZM159.891 24H158.107V12.2266H159.891V24ZM157.957 9.03613C157.957 8.62793 158.057 8.33073 158.258 8.14453C158.458 7.95117 158.709 7.85449 159.01 7.85449C159.296 7.85449 159.543 7.95117 159.751 8.14453C159.959 8.33789 160.062 8.63509 160.062 9.03613C160.062 9.43717 159.959 9.73796 159.751 9.93848C159.543 10.1318 159.296 10.2285 159.01 10.2285C158.709 10.2285 158.458 10.1318 158.258 9.93848C158.057 9.73796 157.957 9.43717 157.957 9.03613ZM171.267 20.7881C171.267 21.8838 170.858 22.7288 170.042 23.3232C169.226 23.9176 168.08 24.2148 166.604 24.2148C165.043 24.2148 163.826 23.9678 162.952 23.4736V21.8193C163.518 22.1058 164.123 22.3314 164.768 22.4961C165.419 22.6608 166.046 22.7432 166.647 22.7432C167.578 22.7432 168.295 22.5964 168.796 22.3027C169.297 22.002 169.548 21.5472 169.548 20.9385C169.548 20.4801 169.347 20.0898 168.946 19.7676C168.552 19.4382 167.779 19.0514 166.626 18.6074C165.53 18.1992 164.75 17.8447 164.284 17.5439C163.826 17.236 163.482 16.8887 163.253 16.502C163.031 16.1152 162.92 15.6533 162.92 15.1162C162.92 14.1566 163.31 13.401 164.091 12.8496C164.871 12.291 165.942 12.0117 167.303 12.0117C168.57 12.0117 169.809 12.2695 171.02 12.7852L170.386 14.2354C169.204 13.7484 168.133 13.5049 167.174 13.5049C166.329 13.5049 165.691 13.6374 165.262 13.9023C164.832 14.1673 164.617 14.5326 164.617 14.998C164.617 15.3132 164.696 15.5817 164.854 15.8037C165.018 16.0257 165.28 16.237 165.638 16.4375C165.996 16.638 166.683 16.9281 167.7 17.3076C169.097 17.8161 170.038 18.3281 170.525 18.8438C171.02 19.3594 171.267 20.0075 171.267 20.7881ZM177.98 22.7432C178.296 22.7432 178.6 22.7217 178.894 22.6787C179.187 22.6286 179.42 22.5785 179.592 22.5283V23.8926C179.398 23.9857 179.112 24.0609 178.732 24.1182C178.36 24.1826 178.023 24.2148 177.723 24.2148C175.445 24.2148 174.307 23.0153 174.307 20.6162V13.6123H172.62V12.7529L174.307 12.0117L175.059 9.49805H176.09V12.2266H179.506V13.6123H176.09V20.541C176.09 21.25 176.258 21.7943 176.595 22.1738C176.931 22.5534 177.393 22.7432 177.98 22.7432Z" fill="white"/>
</svg>
